<svg xmlns="http://www.w3.org/2000/svg" width="14.286" height="10.045" viewBox="0 0 14.286 10.045"><path d="M15.038,6.072A1.8,1.8,0,0,0,13.775,4.8a42.422,42.422,0,0,0-5.582-.3,42.422,42.422,0,0,0-5.582.3A1.8,1.8,0,0,0,1.349,6.072a18.831,18.831,0,0,0-.3,3.461,18.831,18.831,0,0,0,.3,3.461,1.768,1.768,0,0,0,1.263,1.251,42.422,42.422,0,0,0,5.582.3,42.422,42.422,0,0,0,5.582-.3,1.768,1.768,0,0,0,1.263-1.251,18.831,18.831,0,0,0,.3-3.461A18.831,18.831,0,0,0,15.038,6.072ZM6.732,11.657V7.408l3.734,2.124L6.732,11.657Z" transform="translate(-1.05 -4.5)" fill="#fff"/></svg>