<svg xmlns="http://www.w3.org/2000/svg" width="15.906" height="18.178" viewBox="0 0 15.906 18.178"><path d="M15.48,17.042h-.71V.852A.852.852,0,0,0,13.918,0H1.988a.852.852,0,0,0-.852.852v16.19H.426A.426.426,0,0,0,0,17.468v.71H15.906v-.71A.426.426,0,0,0,15.48,17.042ZM4.545,2.7a.426.426,0,0,1,.426-.426h1.42a.426.426,0,0,1,.426.426v1.42a.426.426,0,0,1-.426.426H4.971a.426.426,0,0,1-.426-.426Zm0,3.408a.426.426,0,0,1,.426-.426h1.42a.426.426,0,0,1,.426.426v1.42a.426.426,0,0,1-.426.426H4.971a.426.426,0,0,1-.426-.426Zm1.846,5.255H4.971a.426.426,0,0,1-.426-.426V9.515a.426.426,0,0,1,.426-.426h1.42a.426.426,0,0,1,.426.426v1.42A.426.426,0,0,1,6.391,11.361Zm2.7,5.681H6.817V14.06a.426.426,0,0,1,.426-.426h1.42a.426.426,0,0,1,.426.426Zm2.272-6.107a.426.426,0,0,1-.426.426H9.515a.426.426,0,0,1-.426-.426V9.515a.426.426,0,0,1,.426-.426h1.42a.426.426,0,0,1,.426.426Zm0-3.408a.426.426,0,0,1-.426.426H9.515a.426.426,0,0,1-.426-.426V6.107a.426.426,0,0,1,.426-.426h1.42a.426.426,0,0,1,.426.426Zm0-3.408a.426.426,0,0,1-.426.426H9.515a.426.426,0,0,1-.426-.426V2.7a.426.426,0,0,1,.426-.426h1.42a.426.426,0,0,1,.426.426Z" fill="#b8b8b8"/></svg>