<svg xmlns="http://www.w3.org/2000/svg" width="14.166" height="11.505" viewBox="0 0 14.166 11.505"><path d="M12.709,6.248c.009.126.009.252.009.378a8.2,8.2,0,0,1-8.26,8.26A8.2,8.2,0,0,1,0,13.582a6.006,6.006,0,0,0,.7.036,5.814,5.814,0,0,0,3.6-1.24,2.908,2.908,0,0,1-2.714-2.013,3.661,3.661,0,0,0,.548.045,3.071,3.071,0,0,0,.764-.1A2.9,2.9,0,0,1,.575,7.461V7.426a2.924,2.924,0,0,0,1.312.368,2.908,2.908,0,0,1-.9-3.883A8.252,8.252,0,0,0,6.975,6.949,3.277,3.277,0,0,1,6.9,6.284,2.906,2.906,0,0,1,11.927,4.3a5.716,5.716,0,0,0,1.843-.7,2.9,2.9,0,0,1-1.276,1.6,5.82,5.82,0,0,0,1.672-.449,6.241,6.241,0,0,1-1.456,1.5Z" transform="translate(0 -3.381)" fill="#fff"/></svg>