<svg xmlns="http://www.w3.org/2000/svg" width="12.311" height="12.308" viewBox="0 0 12.311 12.308"><path d="M6.152,5.236A3.156,3.156,0,1,0,9.307,8.392,3.151,3.151,0,0,0,6.152,5.236Zm0,5.207A2.052,2.052,0,1,1,8.2,8.392a2.055,2.055,0,0,1-2.052,2.052Zm4.021-5.336a.736.736,0,1,1-.736-.736A.734.734,0,0,1,10.172,5.107Zm2.09.747a3.643,3.643,0,0,0-.994-2.579,3.667,3.667,0,0,0-2.579-.994c-1.016-.058-4.062-.058-5.078,0a3.661,3.661,0,0,0-2.579.991A3.654,3.654,0,0,0,.038,5.851C-.02,6.868-.02,9.913.038,10.93a3.643,3.643,0,0,0,.994,2.579,3.671,3.671,0,0,0,2.579.994c1.016.058,4.062.058,5.078,0a3.643,3.643,0,0,0,2.579-.994,3.666,3.666,0,0,0,.994-2.579c.058-1.016.058-4.059,0-5.075ZM10.95,12.02a2.077,2.077,0,0,1-1.17,1.17,13.565,13.565,0,0,1-3.628.247,13.67,13.67,0,0,1-3.628-.247,2.077,2.077,0,0,1-1.17-1.17,13.565,13.565,0,0,1-.247-3.628,13.671,13.671,0,0,1,.247-3.628,2.077,2.077,0,0,1,1.17-1.17,13.565,13.565,0,0,1,3.628-.247,13.671,13.671,0,0,1,3.628.247,2.077,2.077,0,0,1,1.17,1.17A13.565,13.565,0,0,1,11.2,8.392,13.557,13.557,0,0,1,10.95,12.02Z" transform="translate(0.005 -2.238)" fill="#fff"/></svg>